<svg width="21" height="17" viewBox="0 0 21 17" fill="none" xmlns="http://www.w3.org/2000/svg">
<path d="M1.31858 1.02952C1.12961 1.2185 1.02344 1.47481 1.02344 1.74207C1.02344 2.00932 1.12961 2.26563 1.31858 2.45461C1.50756 2.64359 1.76387 2.74976 2.03113 2.74976H19.2927C19.5599 2.74976 19.8162 2.64359 20.0052 2.45461C20.1942 2.26563 20.3004 2.00932 20.3004 1.74207C20.3004 1.47481 20.1942 1.2185 20.0052 1.02952C19.8162 0.840542 19.5599 0.734375 19.2927 0.734375H2.03113C1.76387 0.734375 1.50756 0.840543 1.31858 1.02952Z" fill="#525252" stroke="#525252"/>
<path d="M1.31858 7.63108C1.1296 7.82006 1.02344 8.07637 1.02344 8.34363C1.02344 8.61089 1.1296 8.8672 1.31858 9.05618C1.50756 9.24516 1.76387 9.35132 2.03113 9.35132H19.2927C19.5599 9.35132 19.8162 9.24516 20.0052 9.05618C20.1942 8.8672 20.3004 8.61088 20.3004 8.34363C20.3004 8.07637 20.1942 7.82006 20.0052 7.63108C19.8162 7.4421 19.5599 7.33594 19.2927 7.33594H2.03113C1.76387 7.33594 1.50756 7.4421 1.31858 7.63108Z" fill="#FF4769" stroke="#FF4769"/>
<path d="M1.31858 14.2287C1.1296 14.4177 1.02344 14.674 1.02344 14.9413C1.02344 15.2085 1.1296 15.4649 1.31858 15.6538C1.50756 15.8428 1.76387 15.949 2.03113 15.949H19.2927C19.5599 15.949 19.8162 15.8428 20.0052 15.6538C20.1942 15.4649 20.3004 15.2085 20.3004 14.9413C20.3004 14.674 20.1942 14.4177 20.0052 14.2287C19.8162 14.0398 19.5599 13.9336 19.2927 13.9336H2.03113C1.76387 13.9336 1.50756 14.0398 1.31858 14.2287Z" fill="#525252" stroke="#525252"/>
</svg>
