<svg width="30" height="24" viewBox="0 0 30 24" fill="none" xmlns="http://www.w3.org/2000/svg">
<path d="M1.36612 1.36612C1.1317 1.60054 1 1.91848 1 2.25C1 2.58152 1.1317 2.89946 1.36612 3.13388C1.60054 3.3683 1.91848 3.5 2.25 3.5H27.75C28.0815 3.5 28.3995 3.3683 28.6339 3.13388C28.8683 2.89946 29 2.58152 29 2.25C29 1.91848 28.8683 1.60054 28.6339 1.36612C28.3995 1.1317 28.0815 1 27.75 1H2.25C1.91848 1 1.60054 1.1317 1.36612 1.36612Z" fill="#525252" stroke="#525252"/>
<path d="M1.36612 11.1161C1.1317 11.3505 1 11.6685 1 12C1 12.3315 1.1317 12.6495 1.36612 12.8839C1.60054 13.1183 1.91848 13.25 2.25 13.25H27.75C28.0815 13.25 28.3995 13.1183 28.6339 12.8839C28.8683 12.6495 29 12.3315 29 12C29 11.6685 28.8683 11.3505 28.6339 11.1161C28.3995 10.8817 28.0815 10.75 27.75 10.75H2.25C1.91848 10.75 1.60054 10.8817 1.36612 11.1161Z" fill="#FF4769" stroke="#FF4769"/>
<path d="M1.36612 20.8661C1.1317 21.1005 1 21.4185 1 21.75C1 22.0815 1.1317 22.3995 1.36612 22.6339C1.60054 22.8683 1.91848 23 2.25 23H27.75C28.0815 23 28.3995 22.8683 28.6339 22.6339C28.8683 22.3995 29 22.0815 29 21.75C29 21.4185 28.8683 21.1005 28.6339 20.8661C28.3995 20.6317 28.0815 20.5 27.75 20.5H2.25C1.91848 20.5 1.60054 20.6317 1.36612 20.8661Z" fill="#525252" stroke="#525252"/>
</svg>
