<svg width="16" height="17" viewBox="0 0 16 17" fill="none" xmlns="http://www.w3.org/2000/svg">
<path d="M5.03125 2.09375H4.875C4.96094 2.09375 5.03125 2.02344 5.03125 1.9375V2.09375H10.9688V1.9375C10.9688 2.02344 11.0391 2.09375 11.125 2.09375H10.9688V3.5H12.375V1.9375C12.375 1.24805 11.8145 0.6875 11.125 0.6875H4.875C4.18555 0.6875 3.625 1.24805 3.625 1.9375V3.5H5.03125V2.09375ZM14.875 3.5H1.125C0.779297 3.5 0.5 3.7793 0.5 4.125V4.75C0.5 4.83594 0.570312 4.90625 0.65625 4.90625H1.83594L2.31836 15.1211C2.34961 15.7871 2.90039 16.3125 3.56641 16.3125H12.4336C13.1016 16.3125 13.6504 15.7891 13.6816 15.1211L14.1641 4.90625H15.3438C15.4297 4.90625 15.5 4.83594 15.5 4.75V4.125C15.5 3.7793 15.2207 3.5 14.875 3.5ZM12.2832 14.9062H3.7168L3.24414 4.90625H12.7559L12.2832 14.9062Z" fill="#FF4769"/>
</svg>
