<svg width="24" height="24" viewBox="0 0 24 24" fill="none" xmlns="http://www.w3.org/2000/svg">
<path d="M20.668 20.668H3.33464C3.15782 20.668 2.98826 20.7382 2.86323 20.8632C2.73821 20.9883 2.66797 21.1578 2.66797 21.3346C2.66797 21.5114 2.73821 21.681 2.86323 21.806C2.98826 21.9311 3.15782 22.0013 3.33464 22.0013H20.668C20.8448 22.0013 21.0144 21.9311 21.1394 21.806C21.2644 21.681 21.3346 21.5114 21.3346 21.3346C21.3346 21.1578 21.2644 20.9883 21.1394 20.8632C21.0144 20.7382 20.8448 20.668 20.668 20.668Z" fill="#004699"/>
<path d="M11.9989 19.6546L19.0722 12.5813C19.1815 12.4538 19.2385 12.2897 19.2321 12.1219C19.2256 11.9542 19.156 11.795 19.0373 11.6763C18.9186 11.5575 18.7594 11.488 18.5916 11.4815C18.4238 11.475 18.2598 11.5321 18.1322 11.6413L12.6656 17.1013V3.33464C12.6656 3.15782 12.5953 2.98826 12.4703 2.86323C12.3453 2.73821 12.1757 2.66797 11.9989 2.66797C11.8221 2.66797 11.6525 2.73821 11.5275 2.86323C11.4025 2.98826 11.3322 3.15782 11.3322 3.33464V17.1013L5.87225 11.6413C5.81248 11.5715 5.73894 11.5148 5.65623 11.4748C5.57352 11.4348 5.48343 11.4123 5.39162 11.4088C5.2998 11.4052 5.20825 11.4207 5.1227 11.4542C5.03715 11.4877 4.95945 11.5386 4.89448 11.6035C4.82951 11.6685 4.77867 11.7462 4.74516 11.8318C4.71164 11.9173 4.69617 12.0089 4.69972 12.1007C4.70326 12.1925 4.72575 12.2826 4.76576 12.3653C4.80578 12.448 4.86246 12.5215 4.93225 12.5813L11.9989 19.6546Z" fill="#004699"/>
</svg>
