<svg width="16" height="15" viewBox="0 0 16 15" fill="none" xmlns="http://www.w3.org/2000/svg">
<path d="M11.3359 1.4976C11.511 1.3225 11.7189 1.18361 11.9477 1.08885C12.1765 0.994085 12.4216 0.945313 12.6693 0.945312C12.9169 0.945312 13.1621 0.994085 13.3909 1.08885C13.6196 1.18361 13.8275 1.3225 14.0026 1.4976C14.1777 1.67269 14.3166 1.88056 14.4114 2.10934C14.5061 2.33811 14.5549 2.58331 14.5549 2.83093C14.5549 3.07855 14.5061 3.32375 14.4114 3.55253C14.3166 3.7813 14.1777 3.98917 14.0026 4.16426L5.0026 13.1643L1.33594 14.1643L2.33594 10.4976L11.3359 1.4976Z" stroke="#FF4769" stroke-width="1.5" stroke-linecap="round" stroke-linejoin="round"/>
</svg>
