<svg width="32" height="28" viewBox="0 0 32 28" fill="none" xmlns="http://www.w3.org/2000/svg">
<path d="M30.6667 0C31.0311 0 31.3422 0.133333 31.6 0.4C31.8667 0.657778 32 0.968889 32 1.33333V26.6667C32 27.0311 31.8667 27.3422 31.6 27.6C31.3422 27.8667 31.0311 28 30.6667 28H9.33333C8.96889 28 8.65778 27.8667 8.4 27.6C8.13333 27.3422 8 27.0311 8 26.6667V22H1.33333C0.968889 22 0.657778 21.8667 0.4 21.6C0.133333 21.3422 0 21.0311 0 20.6667V7.33333C0 6.96889 0.133333 6.65778 0.4 6.4C0.648889 6.13333 0.96 6 1.33333 6H8V1.33333C8 0.968889 8.13333 0.657778 8.4 0.4C8.65778 0.133333 8.96889 0 9.33333 0H30.6667ZM8 15.7067L9.89333 19.2533H12.7467L9.57333 14.0933L12.6933 9.02667H9.94667L8.21333 12.2267L8.14667 12.3333L8.09333 12.4533L7.24 10.7467L6.36 9.02667H3.45333L6.48 14.12L3.17333 19.2533H6.05333L8 15.7067ZM19 26V22H10V26H19ZM19 20V15H16V20H19ZM19 13V8H16V13H19ZM19 6V2H10V6H19ZM30 26V22H21V26H30ZM30 20V15H21V20H30ZM30 13V8H21V13H30ZM30 6V2H21V6H30Z" fill="#004699"/>
</svg>
