<svg width="32" height="27" viewBox="0 0 32 27" fill="none" xmlns="http://www.w3.org/2000/svg">
<path d="M2.81544 1.0605L3.87594 0L29.0009 25.125L27.9404 26.1855L22.9184 21.1635C20.8679 22.0245 18.6134 22.5 16.2509 22.5C13.0058 22.5011 9.82622 21.5868 7.07735 19.8621C4.32848 18.1374 2.12186 15.6723 0.710938 12.75C2.15938 9.76032 4.43685 7.25011 7.27194 5.5185L2.81544 1.0605ZM16.2509 21C18.1904 21 20.0474 20.649 21.7634 20.0085L20.0699 18.3165C18.7704 19.208 17.1999 19.6167 15.6307 19.4718C14.0614 19.3269 12.5923 18.6374 11.4781 17.523C10.3638 16.4085 9.67461 14.9394 9.52994 13.3701C9.38526 11.8008 9.79422 10.2304 10.6859 8.931L8.36694 6.612C5.85071 8.07053 3.78509 10.1943 2.39694 12.75C3.74827 15.2461 5.74914 17.3305 8.18788 18.7828C10.6266 20.235 13.4125 21.0011 16.2509 21ZM30.1034 12.75C28.7522 10.2541 26.7516 8.16987 24.3131 6.71763C21.8747 5.26539 19.0891 4.49916 16.2509 4.5C14.5665 4.49795 12.8927 4.76636 11.2934 5.295L10.1189 4.122C12.0776 3.37787 14.1557 2.99763 16.2509 3C19.4961 2.99892 22.6757 3.91322 25.4245 5.6379C28.1734 7.36257 30.38 9.82766 31.7909 12.75C30.4231 15.5739 28.314 17.9733 25.6889 19.692L24.6029 18.606C26.9096 17.1596 28.8041 15.1426 30.1034 12.75ZM16.2509 6C17.4345 5.9997 18.5973 6.31061 19.6228 6.90153C20.6483 7.49246 21.5003 8.34263 22.0935 9.36677C22.6868 10.3909 23.0003 11.5531 23.0026 12.7366C23.005 13.9201 22.6961 15.0835 22.1069 16.11L20.9969 15C21.4626 14.0209 21.6137 12.9216 21.4295 11.8531C21.2453 10.7847 20.7348 9.79943 19.9682 9.03277C19.2015 8.2661 18.2163 7.75561 17.1478 7.5714C16.0794 7.3872 14.9801 7.53832 14.0009 8.004L12.8909 6.894C13.9131 6.3064 15.0719 5.99808 16.2509 6ZM11.0009 12.75C11.0007 13.6826 11.2489 14.5985 11.72 15.4034C12.1912 16.2082 12.8682 16.8731 13.6815 17.3295C14.4948 17.786 15.415 18.0175 16.3474 18.0004C17.2799 17.9833 18.191 17.718 18.9869 17.232L11.7689 10.014C11.2651 10.8376 10.9993 11.7846 11.0009 12.75Z" fill="#004699"/>
</svg>
