<svg width="32" height="27" xmlns="http://www.w3.org/2000/svg">

 <g>
  <title>background</title>
  <rect fill="none" id="canvas_background" height="402" width="582" y="-1" x="-1"/>
 </g>
 <g>
  <title>Layer 1</title>
  <path id="svg_1" fill="#004699" d="m22.9184,21.1635c-2.0505,0.861 -4.305,1.3365 -6.6675,1.3365c-3.2451,0.0011 -6.42468,-0.9132 -9.17355,-2.6379c-2.74887,-1.7247 -4.95549,-4.1898 -6.36641,-7.1121c1.44844,-2.98968 3.72591,-5.49989 6.561,-7.2315c5.21549,5.215 10.43097,10.43 15.64646,15.645zm-6.6675,-0.1635c1.9395,0 3.7965,-0.351 5.5125,-0.9915l-1.6935,-1.692c-1.2995,0.8915 -2.87,1.3002 -4.4392,1.1553c-1.5693,-0.1449 -3.0384,-0.8344 -4.1526,-1.9488c-1.1143,-1.1145 -1.80349,-2.5836 -1.94816,-4.1529c-0.14468,-1.5693 0.26428,-3.1397 1.15596,-4.4391l-2.31896,-2.319c-2.51623,1.45853 -4.58185,3.5823 -5.97,6.138c1.35133,2.4961 3.3522,4.5805 5.79094,6.0328c2.43872,1.4522 5.22462,2.2183 8.06302,2.2172zm13.8525,-8.25c-1.3512,-2.4959 -3.3518,-4.58013 -5.7903,-6.03237c-2.4384,-1.45224 -5.224,-2.21847 -8.0622,-2.21763c-1.6844,-0.00205 -3.3582,0.26636 -4.9575,0.795l-1.1745,-1.173c1.9587,-0.74413 4.0368,-1.12437 6.132,-1.122c3.2452,-0.00108 6.4248,0.91322 9.1736,2.6379c2.7489,1.72467 4.9555,4.18976 6.3664,7.1121c-1.3678,2.8239 -3.4769,5.2233 -6.102,6.942l-1.086,-1.086c2.3067,-1.4464 4.2012,-3.4634 5.5005,-5.856zm-13.8525,-6.75c1.1836,-0.0003 2.3464,0.31061 3.3719,0.90153c1.0255,0.59093 1.8775,1.4411 2.4707,2.46524c0.5933,1.02413 0.9068,2.18633 0.9091,3.36983c0.0024,1.1835 -0.3065,2.3469 -0.8957,3.3734l-1.11,-1.11c0.4657,-0.9791 0.6168,-2.0784 0.4326,-3.1469c-0.1842,-1.0684 -0.6947,-2.05367 -1.4613,-2.82033c-0.7667,-0.76667 -1.7519,-1.27716 -2.8204,-1.46137c-1.0684,-0.1842 -2.1677,-0.03308 -3.1469,0.4326l-1.11,-1.11c1.0222,-0.5876 2.181,-0.89592 3.36,-0.894zm-5.25,6.75c-0.0002,0.9326 0.248,1.8485 0.7191,2.6534c0.4712,0.8048 1.1482,1.4697 1.9615,1.9261c0.8133,0.4565 1.7335,0.688 2.6659,0.6709c0.9325,-0.0171 1.8436,-0.2824 2.6395,-0.7684l-7.218,-7.218c-0.5038,0.8236 -0.7696,1.7706 -0.768,2.736z"/>
  <path d="m4.656265,5.078136c0.0625,0 0.180473,-0.134556 0.687499,-0.5c0.801678,-0.577817 1.957924,-1.072826 2.812496,-1.437498c0.771238,-0.329111 1.08575,-0.586568 1.312498,-0.749999c0.215113,-0.155045 0.509409,-0.353655 0.812499,-0.5c0.453764,-0.219096 0.713677,-0.328536 0.812499,-0.624999c0.039529,-0.118585 0,-0.3125 0,-0.499999c0,-0.25 0,-0.374999 0,-0.499999c0,-0.25 0,-0.374999 0,-0.499999l0,-0.1875l0,-0.1875l0,-0.125" id="svg_4" fill-opacity="null" stroke-opacity="null" stroke-width="null" stroke="null" fill="none"/>
  <line stroke-linecap="null" stroke-linejoin="null" id="svg_6" y2="4.078138" x2="10.156258" y1="5.515636" x1="7.281262" fill-opacity="null" stroke-opacity="null" stroke-width="null" stroke="null" fill="none"/>
  <line stroke="null" stroke-linecap="null" stroke-linejoin="null" id="svg_7" y2="3.703138" x2="7.531261" y1="4.765637" x1="9.218759" fill-opacity="null" stroke-opacity="null" stroke-width="null" fill="none"/>
 </g>
</svg>