<svg width="96" height="41" viewBox="0 0 96 41" fill="none" xmlns="http://www.w3.org/2000/svg">
<path d="M54.4467 22.0511V28.0031H50.5587V22.0031L44.0547 11.2031H48.1827L52.6707 18.6671L57.1587 11.2031H60.9747L54.4467 22.0511Z" fill="#004699"/>
<path d="M67.5543 14.3711H61.207L63.0002 11.2031H76.8183V14.3711H71.4423V28.0031H67.5543V14.3711Z" fill="#004699"/>
<path d="M79 18H94V28H79V18Z" fill="#FF4769"/>
<path d="M92.3193 28.0031L92.2952 17.9231L87.3512 26.2271H85.5993L80.6793 18.1391V28.0031H77.0312V11.2031H80.2473L86.5352 21.6431L92.7273 11.2031H95.9193L95.9673 28.0031H92.3193Z" fill="white"/>
<path d="M86.5 22L93 11H80L86.5 22Z" fill="#004699"/>
<path d="M3.78906 19.5C3.78906 22.1875 4.42623 24.8367 5.6483 27.2303C6.87036 29.6239 8.6425 31.6936 10.8193 33.2697C12.9961 34.8458 15.5156 35.8833 18.1711 36.2972C20.8265 36.7111 23.5422 36.4895 26.0955 35.6506C28.6487 34.8117 30.9666 33.3795 32.8592 31.4713C34.7517 29.5632 36.1648 27.2336 36.9827 24.6735C37.8006 22.1135 37.9999 19.396 37.5642 16.7441C37.1285 14.0922 36.0703 11.5813 34.4764 9.41748L20.7891 19.5H3.78906Z" fill="#004699"/>
<path d="M33.6338 8.58441C30.7385 5.12819 26.5889 2.96367 22.0977 2.56703C17.6065 2.17039 13.1416 3.57411 9.68541 6.4694C6.22919 9.36469 4.06467 13.5144 3.66803 18.0056C3.27139 22.4968 4.67511 26.9616 7.5704 30.4178L20.6021 19.5011L33.6338 8.58441Z" fill="#FF4769"/>
<path d="M2.47656 16.0781C15.7807 14.5239 22.3708 11.9848 32.7902 4.89409" stroke="white"/>
<path d="M19.7031 37.7109C24.8416 25.5753 28.6945 19.6739 37.0595 10.5344" stroke="white"/>
<path d="M4.79838 27.7344L35.4766 7.49878L35.4766 7.99878L7.68725 31.8905L4.79838 27.7344Z" fill="white"/>
<path d="M1.47417 18.0003L18.9741 13.0005L34.4741 4.50049L35.8383 7.00038L4.79356 26.9539L1.47417 18.0003Z" fill="white"/>
<path d="M17.9733 38.501L25.4733 22.501L36.9733 10.001L35.9733 8.50101L7.47336 33.3256L17.9733 38.501Z" fill="white"/>
<path d="M18.6133 37.8125C23.4625 25.1607 27.5139 19.2444 36.7874 10.5001" stroke="#004699"/>
<path d="M2.60156 17.0391C15.8587 15.1255 22.3778 12.4091 32.6016 5.03906" stroke="#FF4769"/>
<path d="M8.47656 31.8516L35.4783 8.56576" stroke="#004699"/>
<path d="M4.47656 27.5L34.4766 7.5" stroke="#FF4769"/>
</svg>
