<svg width="31" height="31" viewBox="0 0 31 31" fill="none" xmlns="http://www.w3.org/2000/svg">
<path fill-rule="evenodd" clip-rule="evenodd" d="M10.5 0.335938C10.1906 0.335938 9.89383 0.458854 9.67504 0.677646C9.45625 0.896439 9.33333 1.19318 9.33333 1.5026C9.33333 1.81202 9.45625 2.10877 9.67504 2.32756C9.89383 2.54635 10.1906 2.66927 10.5 2.66927H28V28.3359H10.5C10.1906 28.3359 9.89383 28.4588 9.67504 28.6776C9.45625 28.8964 9.33333 29.1932 9.33333 29.5026C9.33333 29.812 9.45625 30.1088 9.67504 30.3276C9.89383 30.5464 10.1906 30.6693 10.5 30.6693H28C28.6188 30.6693 29.2123 30.4234 29.6499 29.9858C30.0875 29.5483 30.3333 28.9548 30.3333 28.3359V2.66927C30.3333 2.05043 30.0875 1.45694 29.6499 1.01935C29.2123 0.58177 28.6188 0.335938 28 0.335938H10.5ZM15.4093 9.4266C15.3009 9.31813 15.1721 9.23209 15.0304 9.17338C14.8886 9.11468 14.7367 9.08446 14.5833 9.08446C14.4299 9.08446 14.278 9.11468 14.1363 9.17338C13.9946 9.23209 13.8658 9.31813 13.7573 9.4266C13.6489 9.53507 13.5628 9.66385 13.5041 9.80557C13.4454 9.9473 13.4152 10.0992 13.4152 10.2526C13.4152 10.406 13.4454 10.5579 13.5041 10.6996C13.5628 10.8414 13.6489 10.9701 13.7573 11.0786L17.017 14.3359H1.16667C0.857247 14.3359 0.560501 14.4589 0.341709 14.6776C0.122916 14.8964 0 15.1932 0 15.5026C0 15.812 0.122916 16.1088 0.341709 16.3276C0.560501 16.5464 0.857247 16.6693 1.16667 16.6693H17.017L13.7573 19.9266C13.5383 20.1457 13.4152 20.4428 13.4152 20.7526C13.4152 21.0624 13.5383 21.3595 13.7573 21.5786C13.9764 21.7977 14.2735 21.9207 14.5833 21.9207C14.8931 21.9207 15.1903 21.7977 15.4093 21.5786L20.6593 16.3286C20.768 16.2202 20.8542 16.0915 20.913 15.9497C20.9718 15.808 21.0021 15.6561 21.0021 15.5026C21.0021 15.3491 20.9718 15.1972 20.913 15.0555C20.8542 14.9137 20.768 14.785 20.6593 14.6766L15.4093 9.4266Z" fill="#004699"/>
</svg>
