<svg width="21" height="22" viewBox="0 0 21 22" fill="none" xmlns="http://www.w3.org/2000/svg">
<path fill-rule="evenodd" clip-rule="evenodd" d="M7.2 0.599609C6.98783 0.599609 6.78434 0.683895 6.63431 0.833924C6.48429 0.983953 6.4 1.18744 6.4 1.39961C6.4 1.61178 6.48429 1.81527 6.63431 1.96529C6.78434 2.11532 6.98783 2.19961 7.2 2.19961H19.2V19.7996H7.2C6.98783 19.7996 6.78434 19.8839 6.63431 20.0339C6.48429 20.184 6.4 20.3874 6.4 20.5996C6.4 20.8118 6.48429 21.0153 6.63431 21.1653C6.78434 21.3153 6.98783 21.3996 7.2 21.3996H19.2C19.6243 21.3996 20.0313 21.231 20.3314 20.931C20.6314 20.6309 20.8 20.224 20.8 19.7996V2.19961C20.8 1.77526 20.6314 1.3683 20.3314 1.06824C20.0313 0.76818 19.6243 0.599609 19.2 0.599609H7.2ZM10.5664 6.83321C10.492 6.75883 10.4037 6.69983 10.3065 6.65957C10.2094 6.61932 10.1052 6.5986 10 6.5986C9.89481 6.5986 9.79065 6.61932 9.69347 6.65957C9.59628 6.69983 9.50798 6.75883 9.4336 6.83321C9.35922 6.90759 9.30022 6.99589 9.25996 7.09307C9.21971 7.19026 9.19899 7.29442 9.19899 7.39961C9.19899 7.5048 9.21971 7.60896 9.25996 7.70614C9.30022 7.80333 9.35922 7.89163 9.4336 7.96601L11.6688 10.1996H0.8C0.587827 10.1996 0.384344 10.2839 0.234315 10.4339C0.0842855 10.584 0 10.7874 0 10.9996C0 11.2118 0.0842855 11.4153 0.234315 11.5653C0.384344 11.7153 0.587827 11.7996 0.8 11.7996H11.6688L9.4336 14.0332C9.28338 14.1834 9.19899 14.3872 9.19899 14.5996C9.19899 14.812 9.28338 15.0158 9.4336 15.166C9.58382 15.3162 9.78756 15.4006 10 15.4006C10.2124 15.4006 10.4162 15.3162 10.5664 15.166L14.1664 11.566C14.2409 11.4917 14.3 11.4034 14.3403 11.3062C14.3807 11.209 14.4014 11.1048 14.4014 10.9996C14.4014 10.8944 14.3807 10.7902 14.3403 10.693C14.3 10.5958 14.2409 10.5075 14.1664 10.4332L10.5664 6.83321Z" fill="#004699"/>
</svg>
