<svg width="16" height="16" viewBox="0 0 16 16" fill="none" xmlns="http://www.w3.org/2000/svg">
<path d="M6.00067 9L6.39543 8.69315L6.3953 8.69298L6.39479 8.69232L6.39276 8.68971L6.38471 8.67935L6.35308 8.63865L6.23124 8.48187L5.78106 7.90268C5.39979 7.41218 4.87039 6.73122 4.27786 5.9693C3.09317 4.44595 1.65593 2.59879 0.645738 1.30354C0.391473 0.973332 0.624923 0.500001 1.04067 0.500001L14.9507 0.500002L14.9515 0.500001C15.0448 0.499844 15.1362 0.525878 15.2154 0.575137C15.2946 0.624396 15.3583 0.694902 15.3994 0.778627C15.4405 0.862351 15.4572 0.955927 15.4478 1.0487C15.4383 1.14133 15.403 1.22943 15.346 1.30303C14.3356 2.59852 12.9005 4.44615 11.7182 5.96971C11.1269 6.73165 10.5987 7.41264 10.2183 7.90315L9.76928 8.48236L9.64775 8.63916L9.6162 8.67986L9.60817 8.69022L9.60614 8.69284L9.60563 8.69349L9.6055 8.69366L10.0007 9L9.60546 8.69372L9.50067 8.82893V9V15C9.50067 15.2739 9.27452 15.5 9.00067 15.5H7.00067C6.72681 15.5 6.50067 15.2739 6.50067 15V9V8.82857L6.39547 8.6932L6.00067 9Z" stroke="#004699"/>
</svg>
