<svg width="15" height="20" viewBox="0 0 15 20" fill="none" xmlns="http://www.w3.org/2000/svg">
<path d="M7.06243 18.6507L7.06039 18.6486L1.47773 13.0707C1.08473 12.6777 1.36362 12.0023 1.92105 12.0023H13.0773C13.6347 12.0023 13.9136 12.6777 13.5206 13.0707L7.94249 18.6488C7.69608 18.8952 7.30164 18.8925 7.06243 18.6507ZM7.06039 1.35605L7.0604 1.35605L7.06242 1.354C7.30164 1.11222 7.69608 1.10948 7.94249 1.3559L13.5206 6.93402C13.9136 7.32702 13.6347 8.00234 13.0773 8.00234H1.92105C1.36369 8.00234 1.0848 7.32719 1.47758 6.93417C1.47763 6.93412 1.47768 6.93407 1.47773 6.93402L7.06039 1.35605Z" stroke="#004699"/>
</svg>
