<svg width="30" height="30" viewBox="0 0 30 30" fill="none" xmlns="http://www.w3.org/2000/svg">
<path d="M29.3438 15.0408C29.3453 12.654 28.7513 10.3045 27.6154 8.20522C26.4795 6.10599 24.8378 4.32339 22.8389 3.01898C20.84 1.71457 18.5473 0.929582 16.1684 0.735166C13.7895 0.54075 11.3996 0.943049 9.2155 1.9056C7.03137 2.86816 5.12195 4.36054 3.66031 6.24748C2.19867 8.13443 1.23102 10.3563 0.845041 12.7117C0.459066 15.0671 0.666973 17.4816 1.44992 19.7364C2.23287 21.9912 3.5661 24.0149 5.3288 25.6242C5.37715 25.6807 5.43281 25.7306 5.49431 25.7724C8.11409 28.0994 11.4964 29.3845 15.0004 29.3845C18.5043 29.3844 21.8866 28.0991 24.5063 25.772C24.5673 25.7304 24.6225 25.681 24.6705 25.6249C26.1434 24.2833 27.3199 22.6488 28.1246 20.8262C28.9293 19.0037 29.3446 17.0331 29.3438 15.0408ZM2.34375 15.0408C2.34218 12.9751 2.84628 10.9403 3.81203 9.11426C4.77777 7.28818 6.17582 5.72624 7.88413 4.5648C9.59243 3.40336 11.5591 2.67773 13.6123 2.45123C15.6656 2.22474 17.7431 2.50428 19.6635 3.26545C21.5839 4.02662 23.2888 5.24627 24.6293 6.81795C25.9699 8.38963 26.9053 10.2656 27.354 12.282C27.8028 14.2984 27.7511 16.394 27.2036 18.3858C26.656 20.3776 25.6293 22.2052 24.2129 23.7089C22.8868 21.6476 20.9052 20.0929 18.5875 19.2954C19.7428 18.5254 20.6198 17.4041 21.0887 16.0972C21.5576 14.7904 21.5936 13.3673 21.1913 12.0385C20.7891 10.7096 19.9699 9.54538 18.855 8.71797C17.74 7.89055 16.3884 7.44383 15 7.44383C13.6116 7.44383 12.26 7.89055 11.145 8.71797C10.0301 9.54538 9.21094 10.7096 8.80868 12.0385C8.40643 13.3673 8.44242 14.7904 8.91132 16.0972C9.38023 17.4041 10.2572 18.5254 11.4125 19.2954C9.09483 20.0929 7.11321 21.6476 5.78709 23.7089C3.57366 21.3658 2.34151 18.264 2.34375 15.0408ZM10.2188 13.9158C10.2188 12.9701 10.4992 12.0457 11.0245 11.2595C11.5499 10.4732 12.2966 9.86036 13.1703 9.49848C14.044 9.1366 15.0053 9.04192 15.9328 9.2264C16.8602 9.41089 17.7122 9.86626 18.3809 10.5349C19.0495 11.2036 19.5049 12.0555 19.6894 12.983C19.8739 13.9105 19.7792 14.8718 19.4173 15.7455C19.0554 16.6191 18.4426 17.3659 17.6563 17.8912C16.87 18.4166 15.9456 18.697 15 18.697C13.7324 18.6956 12.5171 18.1914 11.6207 17.295C10.7244 16.3987 10.2202 15.1834 10.2188 13.9158ZM7.04667 24.8779C7.87265 23.507 9.03898 22.3728 10.4325 21.5855C11.826 20.7982 13.3994 20.3844 14.9999 20.3844C16.6005 20.3844 18.1738 20.7982 19.5674 21.5855C20.9609 22.3728 22.1272 23.507 22.9532 24.8779C20.7037 26.7017 17.8958 27.697 14.9999 27.697C12.104 27.697 9.29612 26.7017 7.04667 24.8779Z" fill="#004699"/>
</svg>
